<svg width="3000" height="3000" viewBox="0 0 3000 3000" fill="none" xmlns="http://www.w3.org/2000/svg">
<path d="M3000 3000H0V0.000369072H3000V3000Z" fill="white"/>
<path d="M2188.01 1765.27C2168.82 1734.39 2132.04 1741.86 2097.36 1778.75C2126.69 1774.4 2156.09 1770.02 2188.01 1765.27ZM2152.53 1221.56C2134.72 1191.96 2119.79 1165.84 2103.17 1140.83C2100.38 1136.64 2089.54 1134.62 2083.71 1136.24C2028.29 1152.49 1973.93 1175.82 1920.22 1195.76C1995.65 1204.14 2070.75 1212.48 2152.53 1221.56ZM2275.28 921.471C2154.6 913.794 1799.99 1052.65 1695.72 1147.84C1874.49 1073.58 2054.14 997.753 2245.73 959.338C2278.68 952.525 2273.94 960.024 2275.28 921.471ZM1626.65 2305.19C1573.25 2205.05 1538.38 2102.72 1509.82 1997.11C1486.24 2010.11 1461.34 2004.6 1460.8 2037.46C1457.95 2075.24 1452.85 2112.92 1447.12 2150.38C1445.2 2162.98 1447.8 2170.64 1457.86 2178.14C1512.94 2219.14 1567.62 2260.66 1626.65 2305.19ZM1425.88 1592.83C1398.97 1590.73 1390.15 1582.25 1370.76 1606.82C1254.3 1756.2 1078.37 1865.08 929.332 1969.73C1124.4 1917.06 1336.09 1745.19 1425.88 1592.83ZM2029.58 1926.24C1882.19 1832.36 1874.56 1655.53 1849.88 1499.38C1847.91 1487.2 1844.19 1481.59 1832.47 1478.16C1744.61 1455.83 1729.23 1380.55 1735.12 1299.19C1672.58 1370 1700.5 1479.07 1785.64 1513.64C1792.18 1516.71 1800.64 1523.06 1801.74 1529.07C1825.87 1679.12 1834.64 1909.3 2029.58 1926.24ZM1961.76 797.036C1853.06 675.101 1490.39 636.974 1352.45 732.841C1523.27 703.092 1671.31 739.118 1781.89 881.572C1841.06 853.76 1901.45 825.384 1961.76 797.036ZM1423.02 1179.24C1187.36 1174.28 1179.2 1540.51 1419.98 1540.21C1652.89 1535.23 1655.15 1182.78 1423.02 1179.24ZM1855.8 1404.47C1904.11 1429.21 1949.04 1452.35 1968.56 1506.71C2000.78 1582.02 2036.54 1655.8 2069.63 1727.54C2114.35 1710.34 2155.33 1694.59 2197.69 1678.29C2179.59 1652.7 2152.67 1633.28 2131.13 1610.52C2089.13 1559.58 2173.65 1540.69 2210.61 1535.45C2170.87 1479.93 2116.24 1432.55 2069.66 1381.58C2046.47 1358.27 2015.76 1348.35 1982.19 1347.57C1993.02 1363.54 2003.41 1378.87 2013.8 1394.19C1998.73 1394.16 1986.64 1391.71 1975.9 1386.5C1932.8 1365.51 1893.69 1371.15 1855.8 1404.47ZM1721.88 2804.41C1431.36 2579.16 1097.74 2362.84 713.466 2400.1C750.192 2360.22 784.158 2323.3 818.205 2286.46C859.56 2240.62 872.526 2224.76 936.515 2218.18C1318.86 2181.37 1629.72 2460.41 1862.73 2730.79C1734.12 2415.93 1409.29 2207.08 1079.35 2158.31C1113.81 2083.95 1146.25 2008.67 1164.87 1922.49C1030.07 1995.35 894.803 2053.76 743.023 2060.12C849.081 1954.42 955.908 1848.91 1014.47 1708.67C1017.08 1702.77 1024.1 1697.31 1030.34 1694.77C1119.43 1657.6 1200.36 1605.37 1264.04 1532.22C1257.74 1526.19 1251.94 1520.65 1245.51 1514.5C1181.37 1571.6 1111.23 1617.8 1031.31 1652.29C1033.85 1605.82 1030.94 1561.36 1012.67 1517.96C836.005 1084.57 1136.97 612.595 1608.85 604.615C1608.85 579.165 1608.85 553.056 1608.85 525.079C1504.14 523.485 1405.84 551.696 1308.4 585.676C1478.75 450.116 1736.13 447.506 1935.44 517.209C1927.64 533.718 1919.84 550.227 1911.15 568.617C1852.77 550.392 1798.15 537.303 1736.76 526.438C1736.76 557.959 1736.76 586.459 1736.76 615.274C1874.79 645.366 1993.98 708.655 2096.86 808.395C1874.47 898.384 1655.93 989.911 1464.29 1135.32C1487.26 1149.2 1505.94 1147.79 1528.72 1134.23C1808.01 969.625 2104.97 828.887 2425.48 768.373C2426.49 770.556 2427.51 772.726 2428.53 774.91C2384.46 832.87 2358.42 900.101 2348.04 971.905C2346.91 979.459 2341.46 988.469 2335.23 992.809C2288.69 1025.24 2241.72 1057.05 2194.23 1088.03C2184.74 1094.22 2185.16 1099.91 2187.57 1108.71C2196.4 1140.94 2203.95 1173.5 2213.47 1205.5C2220.53 1229.22 2216.33 1250.62 2202.28 1269.42C2189.57 1286.43 2191.48 1302.19 2199.54 1319.64C2235.27 1400.23 2275.99 1479.04 2307.96 1561.14C2313.98 1581.07 2305.05 1596.8 2285.32 1603.64C2254.73 1614.61 2210.17 1614.1 2218.99 1658.48C2220.45 1675.07 2230.94 1694.38 2225.39 1710.66C2204.28 1746.29 2227.01 1771.41 2207.41 1801.69C2159.89 1866.37 2225.42 1900.63 2207.1 1967.8C2184.06 2066.34 2054.42 2035.8 1977.43 2041C1934.15 2041.54 1905.35 2065.11 1909.19 2107.34C1920.32 2235.54 1814.62 2311.86 1837.82 2447.5C1845.45 2488.44 1881.45 2512.55 1906.6 2546.51C1895.84 2490.59 1874.6 2438.7 1882.93 2380.18C2132.48 2537.29 2025.53 3045.08 1895.87 2912C1654.6 2617.4 1500.83 2423.62 1114.4 2314.43C1113.57 2316.67 1112.73 2318.91 1111.88 2321.13C1148.44 2337.41 1185 2353.67 1221.56 2369.93C1221.12 2371.08 1220.7 2372.22 1220.27 2373.38C1192.17 2367.97 1164.07 2362.55 1135.97 2357.14C1370.33 2455.45 1573.92 2593.16 1721.88 2804.41Z" fill="#35312C"/>
<path d="M2182.46 175.974C2073.62 289.944 2025.81 353.988 1957.64 476.514C1491.35 304.392 951.252 599.809 854.643 1089.68C817.217 1366.14 824.976 1685.41 572 1867.55C729.741 1548.73 551.027 1274.6 599.73 948.982C693.757 221.587 1554.46 -128.452 2182.46 175.974Z" fill="#AE1C22"/>
<path d="M1547.33 1361.37C1539.43 1540.1 1278.38 1521.45 1291.54 1347.57C1307.31 1186.41 1551.2 1196.56 1547.33 1361.37Z" fill="#B9863F"/>
</svg>
